<svg width="27" height="35" viewBox="0 0 27 35" fill="none" xmlns="http://www.w3.org/2000/svg">
    <path d="M17 7.64L15.176 34.28C15.144 34.76 14.968 35 14.648 35H12.008C10.216 35 8.936 34.648 8.168 33.944C7.4 33.24 7.016 32.232 7.016 30.92C7.016 30.44 7.032 29.72 7.064 28.76C7.128 27.8 7.208 26.68 7.304 25.4C7.4 24.088 7.496 22.68 7.592 21.176C7.72 19.64 7.848 18.104 7.976 16.568C8.104 15 8.216 13.448 8.312 11.912C8.44 10.376 8.552 8.952 8.648 7.64H0.968C0.616 7.64 0.44 7.416 0.44 6.968L0.584 4.28C0.616 3.864 0.68 3.464 0.776 3.08C0.904 2.664 1.096 2.296 1.352 1.976C1.608 1.656 1.928 1.4 2.312 1.208C2.728 1.016 3.224 0.919998 3.8 0.919998H25.256C25.448 0.919998 25.624 0.967999 25.784 1.064C25.944 1.16 26.024 1.336 26.024 1.592L25.832 4.424C25.768 5.384 25.496 6.168 25.016 6.776C24.568 7.352 23.624 7.64 22.184 7.64H17Z"
          fill="#004015"/>
</svg>
