<svg xmlns="http://www.w3.org/2000/svg" xmlns:xlink="http://www.w3.org/1999/xlink" width="500" zoomAndPan="magnify" viewBox="0 0 375 374.999991" height="500" preserveAspectRatio="xMidYMid meet" version="1.0"><defs><clipPath id="69b2a475d6"><path d="M 62 69 L 313.875 69 L 313.875 332.492188 L 62 332.492188 Z M 62 69 " clip-rule="nonzero"/></clipPath><clipPath id="b808f7f226"><path d="M 93 42.242188 L 282 42.242188 L 282 177.882812 L 93 177.882812 Z M 93 42.242188 " clip-rule="nonzero"/></clipPath><clipPath id="aece015ce1"><path d="M 157 237 L 216 237 L 216 315.851562 L 157 315.851562 Z M 157 237 " clip-rule="nonzero"/></clipPath></defs><g clip-path="url(#69b2a475d6)"><path fill="#004015" d="M 313.042969 309.40625 C 310.308594 257.484375 263.644531 236.007812 263.644531 236.007812 C 252.496094 230.792969 232.28125 220.589844 219.027344 213.84375 C 236.007812 195.265625 241.023438 164.980469 241.804688 160.671875 C 245.347656 141.171875 243.566406 117.035156 243.566406 117.035156 C 240.324219 70.101562 192.9375 69.363281 187.976562 69.410156 C 187.703125 69.410156 187.523438 69.414062 187.523438 69.414062 C 187.523438 69.414062 187.371094 69.410156 187.148438 69.414062 C 182.648438 69.355469 134.738281 69.832031 131.484375 117.035156 C 131.484375 117.035156 129.699219 141.167969 133.242188 160.671875 C 133.472656 161.925781 134.074219 165.425781 135.210938 170.15625 C 144.136719 181.875 157.917969 187.621094 169.226562 190.433594 C 170.648438 189.050781 172.585938 188.191406 174.734375 188.191406 L 195.347656 188.191406 C 199.710938 188.191406 203.242188 191.726562 203.242188 196.089844 C 203.242188 200.453125 199.710938 203.992188 195.347656 203.992188 L 174.734375 203.992188 C 171.480469 203.992188 168.699219 202.027344 167.480469 199.226562 C 159.046875 197.175781 149.285156 193.601562 140.570312 187.457031 C 144.046875 196.484375 149 206.164062 156.023438 213.847656 C 142.769531 220.59375 122.566406 230.792969 111.410156 236.007812 C 111.410156 236.007812 64.75 257.484375 62.011719 309.40625 C 62.011719 309.40625 61.199219 318.039062 77.5625 321.3125 C 77.5625 321.3125 127.6875 332.75 187.53125 332.75 C 247.375 332.75 297.5 321.3125 297.5 321.3125 C 313.859375 318.039062 313.042969 309.40625 313.042969 309.40625 Z M 313.042969 309.40625 " fill-opacity="1" fill-rule="nonzero"/></g><g clip-path="url(#b808f7f226)"><path fill="#004015" d="M 115.445312 177.503906 L 120.425781 177.503906 L 120.425781 119.011719 C 120.4375 118.863281 120.472656 118.722656 120.472656 118.574219 L 120.472656 109.9375 C 120.472656 94.542969 125.222656 82.058594 134.597656 72.84375 C 153.988281 53.765625 187.105469 54.023438 187.667969 54.101562 C 188.058594 54.074219 220.902344 53.601562 240.378906 72.664062 C 249.816406 81.898438 254.605469 94.441406 254.605469 109.9375 L 254.605469 119.070312 C 254.605469 119.160156 254.628906 119.242188 254.628906 119.332031 L 254.628906 177.5 L 259.609375 177.5 C 271.863281 177.5 281.796875 167.570312 281.796875 155.3125 L 281.796875 133.992188 C 281.796875 124.132812 275.359375 115.785156 266.460938 112.898438 L 266.460938 109.941406 C 266.460938 91.132812 260.472656 75.746094 248.675781 64.191406 C 225.675781 41.679688 188.929688 42.261719 187.644531 42.246094 C 186.101562 42.230469 149.324219 41.777344 126.332031 64.332031 C 114.578125 75.871094 108.609375 91.214844 108.609375 109.9375 L 108.609375 112.882812 C 99.703125 115.773438 93.257812 124.125 93.257812 133.988281 L 93.257812 155.3125 C 93.257812 167.570312 103.195312 177.503906 115.445312 177.503906 Z M 115.445312 177.503906 " fill-opacity="1" fill-rule="nonzero"/></g><g clip-path="url(#aece015ce1)"><path fill="#7aea9f" d="M 195.34375 253.117188 L 191.191406 314.199219 C 191.117188 315.300781 190.71875 315.851562 189.988281 315.851562 L 183.976562 315.851562 C 179.894531 315.851562 176.976562 315.042969 175.230469 313.429688 C 173.480469 311.816406 172.605469 309.503906 172.605469 306.496094 C 172.605469 305.394531 172.640625 303.742188 172.714844 301.542969 C 172.859375 299.34375 173.042969 296.773438 173.261719 293.839844 C 173.480469 290.832031 173.699219 287.601562 173.917969 284.152344 C 174.207031 280.632812 174.5 277.109375 174.792969 273.589844 C 175.082031 269.992188 175.339844 266.433594 175.558594 262.914062 C 175.847656 259.390625 176.101562 256.125 176.320312 253.117188 L 158.828125 253.117188 C 158.027344 253.117188 157.625 252.605469 157.625 251.578125 L 157.953125 245.414062 C 158.027344 244.460938 158.171875 243.542969 158.390625 242.664062 C 158.683594 241.707031 159.121094 240.863281 159.703125 240.132812 C 160.285156 239.398438 161.015625 238.808594 161.890625 238.371094 C 162.839844 237.929688 163.96875 237.710938 165.28125 237.710938 L 214.152344 237.710938 C 214.585938 237.710938 214.988281 237.820312 215.351562 238.039062 C 215.71875 238.261719 215.898438 238.664062 215.898438 239.25 L 215.460938 245.742188 C 215.316406 247.945312 214.695312 249.742188 213.605469 251.136719 C 212.582031 252.457031 210.433594 253.117188 207.152344 253.117188 Z M 195.34375 253.117188 " fill-opacity="1" fill-rule="nonzero"/></g></svg>