<svg width="97" height="37" viewBox="0 0 97 37" fill="none" xmlns="http://www.w3.org/2000/svg">
    <path d="M17 8.64L15.176 35.28C15.144 35.76 14.968 36 14.648 36H12.008C10.216 36 8.936 35.648 8.168 34.944C7.4 34.24 7.016 33.232 7.016 31.92C7.016 31.44 7.032 30.72 7.064 29.76C7.128 28.8 7.208 27.68 7.304 26.4C7.4 25.088 7.496 23.68 7.592 22.176C7.72 20.64 7.848 19.104 7.976 17.568C8.104 16 8.216 14.448 8.312 12.912C8.44 11.376 8.552 9.952 8.648 8.64H0.968C0.616 8.64 0.44 8.416 0.44 7.968L0.584 5.28C0.616 4.864 0.68 4.464 0.776 4.08C0.904 3.664 1.096 3.296 1.352 2.976C1.608 2.656 1.928 2.4 2.312 2.208C2.728 2.016 3.224 1.92 3.8 1.92H25.256C25.448 1.92 25.624 1.968 25.784 2.064C25.944 2.16 26.024 2.336 26.024 2.592L25.832 5.424C25.768 6.384 25.496 7.168 25.016 7.776C24.568 8.352 23.624 8.64 22.184 8.64H17ZM40.7064 21.072C40.5144 21.072 40.2904 21.072 40.0344 21.072C39.8104 21.04 39.5864 21.008 39.3624 20.976C39.1384 20.912 38.9464 20.848 38.7864 20.784C38.6264 20.688 38.5464 20.576 38.5464 20.448C38.5464 20.032 38.5624 19.648 38.5944 19.296C38.6264 18.944 38.6424 18.576 38.6424 18.192C38.6424 17.488 38.5464 16.912 38.3544 16.464C38.1624 16.016 37.7784 15.792 37.2024 15.792C36.3064 15.792 35.5544 16.384 34.9464 17.568C34.3704 18.72 34.0024 20.464 33.8424 22.8C33.7784 23.824 33.6824 24.992 33.5544 26.304C33.4584 27.584 33.3624 28.832 33.2664 30.048C33.1704 31.232 33.0904 32.288 33.0264 33.216C32.9624 34.144 32.9304 34.752 32.9304 35.04C32.9304 35.36 32.8184 35.6 32.5944 35.76C32.3704 35.92 32.1304 36 31.8744 36H30.1464C29.1544 36 28.3384 35.904 27.6984 35.712C27.0904 35.488 26.5944 35.184 26.2104 34.8C25.8584 34.416 25.6024 33.952 25.4424 33.408C25.3144 32.832 25.2504 32.176 25.2504 31.44C25.2504 30.96 25.2664 30.288 25.2984 29.424C25.3624 28.528 25.4584 27.312 25.5864 25.776C25.7144 24.208 25.8584 22.24 26.0184 19.872C26.2104 17.472 26.4344 14.512 26.6904 10.992C26.7544 10.064 27.0904 9.6 27.6984 9.6H29.5704C30.4664 9.6 31.2184 9.696 31.8264 9.888C32.4344 10.08 32.9304 10.352 33.3144 10.704C33.6984 11.024 33.9704 11.408 34.1304 11.856C34.3224 12.304 34.4504 12.768 34.5144 13.248C34.8984 12.512 35.3464 11.888 35.8584 11.376C36.4024 10.832 36.9624 10.4 37.5384 10.08C38.1144 9.728 38.7064 9.488 39.3144 9.36C39.9224 9.2 40.4824 9.12 40.9944 9.12C41.6024 9.12 42.2104 9.232 42.8184 9.456C43.4584 9.68 44.0344 10.016 44.5464 10.464C45.0584 10.912 45.4584 11.488 45.7464 12.192C46.0664 12.896 46.2264 13.728 46.2264 14.688C46.2264 15.552 46.0984 16.368 45.8424 17.136C45.5864 17.904 45.2184 18.592 44.7384 19.2C44.2584 19.776 43.6664 20.24 42.9624 20.592C42.2904 20.912 41.5384 21.072 40.7064 21.072ZM59.2591 36.48C57.8511 36.48 56.4431 36.304 55.0351 35.952C53.6591 35.6 52.4111 34.992 51.2911 34.128C50.2031 33.264 49.3071 32.112 48.6031 30.672C47.8991 29.232 47.5471 27.424 47.5471 25.248C47.5471 24.448 47.6111 23.488 47.7391 22.368C47.8671 21.248 48.1071 20.096 48.4591 18.912C48.8431 17.728 49.3551 16.56 49.9951 15.408C50.6671 14.224 51.5311 13.168 52.5871 12.24C53.6431 11.312 54.9231 10.56 56.4271 9.984C57.9311 9.408 59.7231 9.12 61.8031 9.12C63.4671 9.12 64.8751 9.312 66.0271 9.696C67.1791 10.08 68.1071 10.608 68.8111 11.28C69.5151 11.92 70.0271 12.672 70.3471 13.536C70.6671 14.4 70.8271 15.328 70.8271 16.32C70.8271 17.792 70.5231 19.04 69.9151 20.064C69.3391 21.088 68.5711 21.952 67.6111 22.656C66.6831 23.328 65.6431 23.856 64.4911 24.24C63.3391 24.624 62.2031 24.928 61.0831 25.152C59.9631 25.344 58.9231 25.472 57.9631 25.536C57.0351 25.568 56.3151 25.584 55.8031 25.584C55.8031 26.192 55.8831 26.8 56.0431 27.408C56.2351 27.984 56.5071 28.496 56.8591 28.944C57.2111 29.392 57.6751 29.76 58.2511 30.048C58.8271 30.336 59.5311 30.48 60.3631 30.48C61.1951 30.48 61.8351 30.352 62.2831 30.096C62.7631 29.808 63.1471 29.504 63.4351 29.184C63.7231 28.832 63.9631 28.528 64.1551 28.272C64.3791 27.984 64.6671 27.84 65.0191 27.84C65.1791 27.84 65.4511 27.888 65.8351 27.984C66.2511 28.048 66.6671 28.208 67.0831 28.464C67.4991 28.72 67.8671 29.072 68.1871 29.52C68.5071 29.968 68.6671 30.544 68.6671 31.248C68.6671 32.176 68.3791 32.976 67.8031 33.648C67.2271 34.32 66.4751 34.864 65.5471 35.28C64.6511 35.696 63.6431 36 62.5231 36.192C61.4031 36.384 60.3151 36.48 59.2591 36.48ZM60.1711 15.504C59.4671 15.504 58.8591 15.712 58.3471 16.128C57.8671 16.512 57.4511 17.008 57.0991 17.616C56.7791 18.224 56.5231 18.896 56.3311 19.632C56.1711 20.368 56.0431 21.072 55.9471 21.744C57.9311 21.712 59.5311 21.376 60.7471 20.736C61.9951 20.096 62.6191 19.184 62.6191 18C62.6191 17.36 62.4111 16.784 61.9951 16.272C61.6111 15.76 61.0031 15.504 60.1711 15.504ZM96.518 32.112C96.518 32.272 96.438 32.592 96.278 33.072C96.118 33.552 95.862 34.048 95.51 34.56C95.158 35.072 94.71 35.52 94.166 35.904C93.654 36.288 93.03 36.48 92.294 36.48C91.43 36.48 90.566 36.192 89.702 35.616C88.87 35.04 88.038 34.256 87.206 33.264C86.374 32.272 85.526 31.104 84.662 29.76C83.83 28.384 82.982 26.896 82.118 25.296C81.99 26.992 81.862 28.656 81.734 30.288C81.606 31.92 81.478 33.504 81.35 35.04C81.318 35.424 81.238 35.68 81.11 35.808C80.982 35.936 80.71 36 80.294 36H78.566C77.574 36 76.758 35.904 76.118 35.712C75.478 35.488 74.982 35.184 74.63 34.8C74.278 34.416 74.022 33.936 73.862 33.36C73.734 32.752 73.67 32.064 73.67 31.296C73.67 30.912 73.686 30.512 73.718 30.096C73.75 29.68 73.798 29.088 73.862 28.32C73.926 27.552 74.006 26.544 74.102 25.296C74.23 24.048 74.374 22.4 74.534 20.352C74.694 18.304 74.87 15.792 75.062 12.816C75.286 9.808 75.526 6.16 75.782 1.872C75.814 1.168 75.894 0.751998 76.022 0.623998C76.118 0.527999 76.374 0.48 76.79 0.48H78.662C79.654 0.48 80.47 0.591999 81.11 0.815998C81.75 1.04 82.262 1.344 82.646 1.728C83.03 2.112 83.286 2.56 83.414 3.072C83.574 3.584 83.654 4.112 83.654 4.656C83.654 4.976 83.622 5.52 83.558 6.288C83.526 7.024 83.478 7.936 83.414 9.024C83.35 10.08 83.254 11.28 83.126 12.624C83.03 13.968 82.934 15.376 82.838 16.848L90.518 9.84C90.806 9.584 91.062 9.408 91.286 9.312C91.542 9.216 91.734 9.168 91.862 9.168C92.214 9.168 92.598 9.392 93.014 9.84C93.43 10.288 93.814 10.816 94.166 11.424C94.55 12 94.854 12.608 95.078 13.248C95.334 13.856 95.462 14.352 95.462 14.736C95.462 15.664 94.71 16.64 93.206 17.664C91.734 18.688 89.494 19.84 86.486 21.12C87.83 22.624 89.11 24 90.326 25.248C91.542 26.496 92.598 27.6 93.494 28.56C94.422 29.52 95.158 30.304 95.702 30.912C96.246 31.52 96.518 31.92 96.518 32.112Z"
          fill="#004015"/>
</svg>
