<svg xmlns="http://www.w3.org/2000/svg" width="500" zoomAndPan="magnify"
     viewBox="0 0 375 374.999991" height="500" preserveAspectRatio="xMidYMid meet" version="1.0">
    <path fill="#7aea9f"
          d="M 219.59375 97.402344 L 202.921875 340.421875 C 202.628906 344.800781 201.023438 346.988281 198.097656 346.988281 L 173.972656 346.988281 C 157.59375 346.988281 145.898438 343.777344 138.878906 337.355469 C 131.859375 330.933594 128.351562 321.738281 128.351562 309.769531 C 128.351562 305.390625 128.496094 298.824219 128.789062 290.066406 C 129.375 281.308594 130.105469 271.09375 130.980469 259.414062 C 131.859375 247.445312 132.738281 234.601562 133.613281 220.882812 C 134.785156 206.871094 135.953125 192.859375 137.125 178.847656 C 138.292969 164.542969 139.316406 150.386719 140.195312 136.375 C 141.363281 122.363281 142.386719 109.371094 143.265625 97.402344 L 73.078125 97.402344 C 69.859375 97.402344 68.253906 95.359375 68.253906 91.273438 L 69.570312 66.753906 C 69.859375 62.957031 70.445312 59.308594 71.324219 55.804688 C 72.492188 52.011719 74.246094 48.65625 76.585938 45.734375 C 78.925781 42.816406 81.851562 40.480469 85.359375 38.730469 C 89.164062 36.976562 93.695312 36.101562 98.960938 36.101562 L 295.042969 36.101562 C 296.796875 36.101562 298.40625 36.539062 299.867188 37.414062 C 301.332031 38.292969 302.0625 39.898438 302.0625 42.234375 L 300.308594 68.066406 C 299.722656 76.824219 297.238281 83.976562 292.851562 89.523438 C 288.753906 94.777344 280.128906 97.402344 266.96875 97.402344 Z M 219.59375 97.402344 "
          fill-opacity="1" fill-rule="nonzero"/>
</svg>
