<svg xmlns="http://www.w3.org/2000/svg" width="500" zoomAndPan="magnify"
     viewBox="0 0 375 374.999991" height="500" preserveAspectRatio="xMidYMid meet" version="1.0">
    <defs>
        <g/>
    </defs>
    <path fill="#004015"
          d="M 121.992188 146.101562 L 118.394531 198.484375 C 118.332031 199.425781 117.988281 199.898438 117.355469 199.898438 L 112.152344 199.898438 C 108.617188 199.898438 106.09375 199.207031 104.578125 197.820312 C 103.066406 196.4375 102.308594 194.457031 102.308594 191.875 C 102.308594 190.933594 102.339844 189.515625 102.402344 187.628906 C 102.53125 185.742188 102.6875 183.539062 102.875 181.023438 C 103.066406 178.441406 103.253906 175.675781 103.445312 172.71875 C 103.695312 169.695312 103.949219 166.675781 104.203125 163.65625 C 104.453125 160.574219 104.675781 157.523438 104.863281 154.503906 C 105.117188 151.480469 105.335938 148.683594 105.527344 146.101562 L 90.386719 146.101562 C 89.691406 146.101562 89.34375 145.664062 89.34375 144.78125 L 89.628906 139.496094 C 89.691406 138.679688 89.816406 137.890625 90.007812 137.136719 C 90.257812 136.320312 90.636719 135.59375 91.140625 134.964844 C 91.648438 134.335938 92.277344 133.832031 93.035156 133.457031 C 93.855469 133.078125 94.832031 132.890625 95.96875 132.890625 L 138.269531 132.890625 C 138.648438 132.890625 138.996094 132.984375 139.308594 133.171875 C 139.625 133.363281 139.785156 133.707031 139.785156 134.210938 L 139.40625 139.78125 C 139.277344 141.667969 138.742188 143.207031 137.796875 144.402344 C 136.914062 145.535156 135.050781 146.101562 132.210938 146.101562 Z M 168.730469 170.546875 C 168.351562 170.546875 167.910156 170.546875 167.40625 170.546875 C 166.964844 170.484375 166.523438 170.421875 166.082031 170.359375 C 165.640625 170.230469 165.261719 170.105469 164.945312 169.980469 C 164.628906 169.792969 164.472656 169.570312 164.472656 169.320312 C 164.472656 168.5 164.503906 167.746094 164.566406 167.054688 C 164.628906 166.363281 164.660156 165.640625 164.660156 164.882812 C 164.660156 163.5 164.472656 162.367188 164.09375 161.484375 C 163.714844 160.605469 162.957031 160.164062 161.820312 160.164062 C 160.054688 160.164062 158.574219 161.328125 157.375 163.65625 C 156.238281 165.921875 155.511719 169.351562 155.199219 173.945312 C 155.070312 175.957031 154.882812 178.253906 154.628906 180.832031 C 154.441406 183.351562 154.25 185.804688 154.0625 188.195312 C 153.871094 190.523438 153.714844 192.601562 153.589844 194.425781 C 153.460938 196.25 153.398438 197.445312 153.398438 198.011719 C 153.398438 198.640625 153.179688 199.113281 152.738281 199.425781 C 152.296875 199.742188 151.824219 199.898438 151.316406 199.898438 L 147.910156 199.898438 C 145.957031 199.898438 144.347656 199.710938 143.085938 199.332031 C 141.886719 198.890625 140.90625 198.292969 140.152344 197.539062 C 139.457031 196.785156 138.953125 195.871094 138.636719 194.800781 C 138.382812 193.667969 138.257812 192.378906 138.257812 190.933594 C 138.257812 189.988281 138.289062 188.667969 138.351562 186.96875 C 138.480469 185.207031 138.667969 182.816406 138.921875 179.796875 C 139.171875 176.710938 139.457031 172.84375 139.773438 168.1875 C 140.152344 163.46875 140.59375 157.648438 141.097656 150.726562 C 141.222656 148.902344 141.886719 147.988281 143.085938 147.988281 L 146.773438 147.988281 C 148.542969 147.988281 150.023438 148.179688 151.222656 148.554688 C 152.421875 148.933594 153.398438 149.46875 154.15625 150.160156 C 154.914062 150.789062 155.449219 151.546875 155.765625 152.425781 C 156.144531 153.308594 156.394531 154.21875 156.523438 155.164062 C 157.28125 153.714844 158.164062 152.488281 159.171875 151.480469 C 160.246094 150.414062 161.347656 149.5625 162.484375 148.933594 C 163.621094 148.242188 164.789062 147.769531 165.984375 147.519531 C 167.183594 147.203125 168.289062 147.046875 169.296875 147.046875 C 170.496094 147.046875 171.695312 147.265625 172.894531 147.707031 C 174.15625 148.148438 175.292969 148.808594 176.300781 149.6875 C 177.308594 150.570312 178.097656 151.703125 178.667969 153.085938 C 179.296875 154.472656 179.613281 156.105469 179.613281 157.996094 C 179.613281 159.691406 179.359375 161.296875 178.855469 162.808594 C 178.351562 164.316406 177.625 165.671875 176.679688 166.867188 C 175.734375 168 174.566406 168.910156 173.179688 169.601562 C 171.851562 170.230469 170.371094 170.546875 168.730469 170.546875 Z M 205.308594 200.84375 C 202.53125 200.84375 199.753906 200.496094 196.980469 199.804688 C 194.265625 199.113281 191.804688 197.917969 189.597656 196.21875 C 187.453125 194.519531 185.6875 192.253906 184.296875 189.421875 C 182.910156 186.589844 182.214844 183.035156 182.214844 178.757812 C 182.214844 177.183594 182.34375 175.296875 182.59375 173.09375 C 182.847656 170.894531 183.320312 168.628906 184.015625 166.300781 C 184.773438 163.972656 185.78125 161.675781 187.042969 159.410156 C 188.367188 157.082031 190.070312 155.003906 192.152344 153.179688 C 194.234375 151.355469 196.757812 149.878906 199.722656 148.746094 C 202.6875 147.613281 206.222656 147.046875 210.324219 147.046875 C 213.601562 147.046875 216.378906 147.425781 218.652344 148.179688 C 220.921875 148.933594 222.75 149.972656 224.140625 151.292969 C 225.527344 152.550781 226.535156 154.03125 227.167969 155.730469 C 227.796875 157.429688 228.113281 159.253906 228.113281 161.203125 C 228.113281 164.097656 227.515625 166.550781 226.316406 168.566406 C 225.179688 170.578125 223.667969 172.277344 221.773438 173.660156 C 219.945312 174.984375 217.894531 176.019531 215.621094 176.777344 C 213.351562 177.53125 211.113281 178.128906 208.902344 178.570312 C 206.695312 178.945312 204.644531 179.199219 202.753906 179.324219 C 200.921875 179.386719 199.503906 179.417969 198.492188 179.417969 C 198.492188 180.613281 198.652344 181.808594 198.96875 183.003906 C 199.34375 184.136719 199.882812 185.144531 200.574219 186.023438 C 201.269531 186.90625 202.183594 187.628906 203.320312 188.195312 C 204.457031 188.761719 205.84375 189.042969 207.484375 189.042969 C 209.125 189.042969 210.386719 188.792969 211.269531 188.289062 C 212.214844 187.722656 212.972656 187.125 213.539062 186.496094 C 214.109375 185.804688 214.582031 185.207031 214.960938 184.703125 C 215.402344 184.136719 215.96875 183.855469 216.664062 183.855469 C 216.980469 183.855469 217.515625 183.949219 218.273438 184.136719 C 219.09375 184.261719 219.914062 184.578125 220.734375 185.082031 C 221.550781 185.585938 222.277344 186.277344 222.910156 187.15625 C 223.539062 188.039062 223.855469 189.171875 223.855469 190.554688 C 223.855469 192.378906 223.289062 193.953125 222.152344 195.273438 C 221.015625 196.59375 219.535156 197.664062 217.703125 198.484375 C 215.9375 199.300781 213.949219 199.898438 211.742188 200.277344 C 209.535156 200.652344 207.390625 200.84375 205.308594 200.84375 Z M 207.105469 159.597656 C 205.71875 159.597656 204.519531 160.007812 203.507812 160.824219 C 202.5625 161.582031 201.742188 162.554688 201.046875 163.75 C 200.417969 164.945312 199.914062 166.269531 199.535156 167.714844 C 199.21875 169.164062 198.96875 170.546875 198.777344 171.867188 C 202.6875 171.804688 205.84375 171.144531 208.242188 169.886719 C 210.703125 168.628906 211.929688 166.835938 211.929688 164.507812 C 211.929688 163.25 211.523438 162.117188 210.703125 161.109375 C 209.945312 160.101562 208.746094 159.597656 207.105469 159.597656 Z M 278.765625 192.253906 C 278.765625 192.566406 278.605469 193.199219 278.289062 194.140625 C 277.976562 195.085938 277.46875 196.058594 276.777344 197.066406 C 276.082031 198.074219 275.199219 198.953125 274.128906 199.710938 C 273.117188 200.464844 271.886719 200.84375 270.4375 200.84375 C 268.734375 200.84375 267.03125 200.277344 265.324219 199.144531 C 263.6875 198.011719 262.046875 196.46875 260.40625 194.519531 C 258.765625 192.566406 257.09375 190.273438 255.390625 187.628906 C 253.75 184.921875 252.078125 181.996094 250.375 178.851562 C 250.121094 182.1875 249.871094 185.457031 249.617188 188.667969 C 249.363281 191.875 249.113281 194.992188 248.859375 198.011719 C 248.796875 198.765625 248.640625 199.269531 248.386719 199.519531 C 248.132812 199.773438 247.597656 199.898438 246.777344 199.898438 L 243.371094 199.898438 C 241.414062 199.898438 239.808594 199.710938 238.546875 199.332031 C 237.28125 198.890625 236.304688 198.292969 235.609375 197.539062 C 234.917969 196.785156 234.414062 195.839844 234.097656 194.707031 C 233.84375 193.511719 233.71875 192.160156 233.71875 190.648438 C 233.71875 189.894531 233.75 189.109375 233.8125 188.289062 C 233.875 187.472656 233.972656 186.308594 234.097656 184.796875 C 234.222656 183.289062 234.382812 181.304688 234.570312 178.851562 C 234.824219 176.398438 235.105469 173.15625 235.421875 169.132812 C 235.738281 165.105469 236.085938 160.164062 236.464844 154.3125 C 236.90625 148.398438 237.378906 141.226562 237.882812 132.796875 C 237.945312 131.410156 238.101562 130.59375 238.355469 130.339844 C 238.546875 130.152344 239.050781 130.058594 239.871094 130.058594 L 243.558594 130.058594 C 245.515625 130.058594 247.125 130.277344 248.386719 130.71875 C 249.648438 131.160156 250.65625 131.757812 251.414062 132.511719 C 252.171875 133.265625 252.675781 134.148438 252.929688 135.15625 C 253.246094 136.160156 253.402344 137.199219 253.402344 138.269531 C 253.402344 138.898438 253.339844 139.96875 253.214844 141.476562 C 253.148438 142.925781 253.054688 144.71875 252.929688 146.859375 C 252.804688 148.933594 252.613281 151.292969 252.363281 153.9375 C 252.171875 156.578125 251.984375 159.347656 251.792969 162.242188 L 266.933594 148.460938 C 267.503906 147.957031 268.007812 147.613281 268.449219 147.425781 C 268.953125 147.234375 269.332031 147.140625 269.585938 147.140625 C 270.277344 147.140625 271.035156 147.582031 271.855469 148.460938 C 272.675781 149.34375 273.433594 150.382812 274.128906 151.578125 C 274.882812 152.710938 275.484375 153.90625 275.925781 155.164062 C 276.429688 156.359375 276.683594 157.332031 276.683594 158.089844 C 276.683594 159.914062 275.199219 161.832031 272.234375 163.847656 C 269.332031 165.859375 264.917969 168.125 258.984375 170.640625 C 261.636719 173.597656 264.160156 176.304688 266.554688 178.757812 C 268.953125 181.210938 271.035156 183.382812 272.800781 185.269531 C 274.632812 187.15625 276.082031 188.699219 277.15625 189.894531 C 278.226562 191.089844 278.765625 191.875 278.765625 192.253906 Z M 278.765625 192.253906 "
          fill-opacity="1" fill-rule="nonzero"/>
    <g fill="#004015" fill-opacity="1">
        <g transform="translate(93.381092, 238.485452)">
            <g>
                <path d="M 9.359375 -17.265625 C 11.628906 -17.265625 13.367188 -16.769531 14.578125 -15.78125 C 15.785156 -14.789062 16.390625 -13.289062 16.390625 -11.28125 L 16.390625 0 L 13.171875 0 L 12.28125 -2.296875 L 12.15625 -2.296875 C 11.664062 -1.691406 11.171875 -1.195312 10.671875 -0.8125 C 10.171875 -0.4375 9.59375 -0.160156 8.9375 0.015625 C 8.28125 0.203125 7.484375 0.296875 6.546875 0.296875 C 5.546875 0.296875 4.648438 0.109375 3.859375 -0.265625 C 3.066406 -0.648438 2.441406 -1.238281 1.984375 -2.03125 C 1.523438 -2.820312 1.296875 -3.832031 1.296875 -5.0625 C 1.296875 -6.851562 1.925781 -8.175781 3.1875 -9.03125 C 4.457031 -9.882812 6.351562 -10.351562 8.875 -10.4375 L 11.8125 -10.53125 L 11.8125 -11.28125 C 11.8125 -12.164062 11.578125 -12.8125 11.109375 -13.21875 C 10.648438 -13.632812 10.003906 -13.84375 9.171875 -13.84375 C 8.359375 -13.84375 7.554688 -13.726562 6.765625 -13.5 C 5.972656 -13.269531 5.1875 -12.976562 4.40625 -12.625 L 2.875 -15.75 C 3.769531 -16.21875 4.773438 -16.585938 5.890625 -16.859375 C 7.003906 -17.128906 8.160156 -17.265625 9.359375 -17.265625 Z M 11.8125 -7.84375 L 10.015625 -7.78125 C 8.523438 -7.738281 7.488281 -7.46875 6.90625 -6.96875 C 6.332031 -6.476562 6.046875 -5.832031 6.046875 -5.03125 C 6.046875 -4.320312 6.25 -3.816406 6.65625 -3.515625 C 7.070312 -3.222656 7.613281 -3.078125 8.28125 -3.078125 C 9.269531 -3.078125 10.101562 -3.367188 10.78125 -3.953125 C 11.46875 -4.535156 11.8125 -5.367188 11.8125 -6.453125 Z M 11.8125 -7.84375 "/>
            </g>
        </g>
    </g>
    <g fill="#004015" fill-opacity="1">
        <g transform="translate(112.102858, 238.485452)">
            <g>
                <path d="M 7.78125 0.296875 C 5.894531 0.296875 4.359375 -0.4375 3.171875 -1.90625 C 1.984375 -3.382812 1.390625 -5.5625 1.390625 -8.4375 C 1.390625 -11.332031 1.988281 -13.519531 3.1875 -15 C 4.394531 -16.488281 5.96875 -17.234375 7.90625 -17.234375 C 8.707031 -17.234375 9.414062 -17.125 10.03125 -16.90625 C 10.644531 -16.6875 11.175781 -16.390625 11.625 -16.015625 C 12.082031 -15.640625 12.46875 -15.222656 12.78125 -14.765625 L 12.921875 -14.765625 C 12.867188 -15.085938 12.796875 -15.5625 12.703125 -16.1875 C 12.617188 -16.820312 12.578125 -17.472656 12.578125 -18.140625 L 12.578125 -23.546875 L 17.203125 -23.546875 L 17.203125 0 L 13.671875 0 L 12.78125 -2.1875 L 12.578125 -2.1875 C 12.285156 -1.726562 11.921875 -1.304688 11.484375 -0.921875 C 11.046875 -0.546875 10.519531 -0.25 9.90625 -0.03125 C 9.300781 0.1875 8.59375 0.296875 7.78125 0.296875 Z M 9.40625 -3.375 C 10.664062 -3.375 11.550781 -3.75 12.0625 -4.5 C 12.582031 -5.25 12.859375 -6.382812 12.890625 -7.90625 L 12.890625 -8.40625 C 12.890625 -10.050781 12.640625 -11.304688 12.140625 -12.171875 C 11.640625 -13.046875 10.703125 -13.484375 9.328125 -13.484375 C 8.304688 -13.484375 7.503906 -13.046875 6.921875 -12.171875 C 6.347656 -11.296875 6.0625 -10.03125 6.0625 -8.375 C 6.0625 -6.71875 6.351562 -5.46875 6.9375 -4.625 C 7.519531 -3.789062 8.34375 -3.375 9.40625 -3.375 Z M 9.40625 -3.375 "/>
            </g>
        </g>
    </g>
    <g fill="#004015" fill-opacity="1">
        <g transform="translate(131.717573, 238.485452)">
            <g>
                <path d="M 22.296875 -17.234375 C 24.210938 -17.234375 25.660156 -16.742188 26.640625 -15.765625 C 27.628906 -14.785156 28.125 -13.207031 28.125 -11.03125 L 28.125 0 L 23.5 0 L 23.5 -9.890625 C 23.5 -11.097656 23.289062 -12.007812 22.875 -12.625 C 22.457031 -13.238281 21.816406 -13.546875 20.953125 -13.546875 C 19.734375 -13.546875 18.863281 -13.109375 18.34375 -12.234375 C 17.832031 -11.359375 17.578125 -10.109375 17.578125 -8.484375 L 17.578125 0 L 12.953125 0 L 12.953125 -9.890625 C 12.953125 -10.691406 12.859375 -11.363281 12.671875 -11.90625 C 12.492188 -12.457031 12.21875 -12.867188 11.84375 -13.140625 C 11.476562 -13.410156 11.003906 -13.546875 10.421875 -13.546875 C 9.554688 -13.546875 8.878906 -13.332031 8.390625 -12.90625 C 7.898438 -12.476562 7.550781 -11.847656 7.34375 -11.015625 C 7.132812 -10.179688 7.03125 -9.164062 7.03125 -7.96875 L 7.03125 0 L 2.421875 0 L 2.421875 -16.921875 L 5.953125 -16.921875 L 6.5625 -14.765625 L 6.828125 -14.765625 C 7.171875 -15.347656 7.601562 -15.816406 8.125 -16.171875 C 8.644531 -16.535156 9.21875 -16.800781 9.84375 -16.96875 C 10.46875 -17.144531 11.101562 -17.234375 11.75 -17.234375 C 12.988281 -17.234375 14.039062 -17.03125 14.90625 -16.625 C 15.769531 -16.226562 16.429688 -15.609375 16.890625 -14.765625 L 17.296875 -14.765625 C 17.804688 -15.628906 18.519531 -16.253906 19.4375 -16.640625 C 20.363281 -17.035156 21.316406 -17.234375 22.296875 -17.234375 Z M 22.296875 -17.234375 "/>
            </g>
        </g>
    </g>
    <g fill="#004015" fill-opacity="1">
        <g transform="translate(162.153682, 238.485452)">
            <g>
                <path d="M 7.03125 -16.921875 L 7.03125 0 L 2.421875 0 L 2.421875 -16.921875 Z M 4.734375 -23.546875 C 5.421875 -23.546875 6.007812 -23.382812 6.5 -23.0625 C 7 -22.75 7.25 -22.160156 7.25 -21.296875 C 7.25 -20.441406 7 -19.847656 6.5 -19.515625 C 6.007812 -19.191406 5.421875 -19.03125 4.734375 -19.03125 C 4.035156 -19.03125 3.441406 -19.191406 2.953125 -19.515625 C 2.460938 -19.847656 2.21875 -20.441406 2.21875 -21.296875 C 2.21875 -22.160156 2.460938 -22.75 2.953125 -23.0625 C 3.441406 -23.382812 4.035156 -23.546875 4.734375 -23.546875 Z M 4.734375 -23.546875 "/>
            </g>
        </g>
    </g>
    <g fill="#004015" fill-opacity="1">
        <g transform="translate(171.612944, 238.485452)">
            <g>
                <path d="M 12.03125 -17.234375 C 13.84375 -17.234375 15.296875 -16.742188 16.390625 -15.765625 C 17.492188 -14.785156 18.046875 -13.207031 18.046875 -11.03125 L 18.046875 0 L 13.421875 0 L 13.421875 -9.890625 C 13.421875 -11.097656 13.203125 -12.007812 12.765625 -12.625 C 12.328125 -13.238281 11.640625 -13.546875 10.703125 -13.546875 C 9.285156 -13.546875 8.316406 -13.066406 7.796875 -12.109375 C 7.285156 -11.148438 7.03125 -9.769531 7.03125 -7.96875 L 7.03125 0 L 2.421875 0 L 2.421875 -16.921875 L 5.953125 -16.921875 L 6.5625 -14.765625 L 6.828125 -14.765625 C 7.191406 -15.347656 7.640625 -15.816406 8.171875 -16.171875 C 8.710938 -16.535156 9.3125 -16.800781 9.96875 -16.96875 C 10.632812 -17.144531 11.320312 -17.234375 12.03125 -17.234375 Z M 12.03125 -17.234375 "/>
            </g>
        </g>
    </g>
    <g fill="#004015" fill-opacity="1">
        <g transform="translate(191.9844, 238.485452)">
            <g/>
        </g>
    </g>
    <g fill="#004015" fill-opacity="1">
        <g transform="translate(200.036119, 238.485452)">
            <g>
                <path d="M 11.84375 -17.234375 C 13.75 -17.234375 15.285156 -16.492188 16.453125 -15.015625 C 17.628906 -13.535156 18.21875 -11.359375 18.21875 -8.484375 C 18.21875 -6.566406 17.941406 -4.957031 17.390625 -3.65625 C 16.835938 -2.351562 16.070312 -1.367188 15.09375 -0.703125 C 14.113281 -0.0351562 12.988281 0.296875 11.71875 0.296875 C 10.894531 0.296875 10.191406 0.195312 9.609375 0 C 9.023438 -0.207031 8.523438 -0.472656 8.109375 -0.796875 C 7.703125 -1.128906 7.34375 -1.484375 7.03125 -1.859375 L 6.796875 -1.859375 C 6.878906 -1.453125 6.9375 -1.035156 6.96875 -0.609375 C 7.007812 -0.191406 7.03125 0.21875 7.03125 0.625 L 7.03125 7.453125 L 2.421875 7.453125 L 2.421875 -16.921875 L 6.171875 -16.921875 L 6.828125 -14.734375 L 7.03125 -14.734375 C 7.34375 -15.179688 7.710938 -15.597656 8.140625 -15.984375 C 8.578125 -16.367188 9.097656 -16.671875 9.703125 -16.890625 C 10.316406 -17.117188 11.03125 -17.234375 11.84375 -17.234375 Z M 10.359375 -13.546875 C 9.546875 -13.546875 8.898438 -13.378906 8.421875 -13.046875 C 7.953125 -12.710938 7.609375 -12.210938 7.390625 -11.546875 C 7.171875 -10.878906 7.050781 -10.035156 7.03125 -9.015625 L 7.03125 -8.515625 C 7.03125 -7.429688 7.132812 -6.507812 7.34375 -5.75 C 7.550781 -4.988281 7.898438 -4.410156 8.390625 -4.015625 C 8.878906 -3.628906 9.554688 -3.4375 10.421875 -3.4375 C 11.117188 -3.4375 11.695312 -3.628906 12.15625 -4.015625 C 12.613281 -4.410156 12.953125 -4.988281 13.171875 -5.75 C 13.398438 -6.519531 13.515625 -7.453125 13.515625 -8.546875 C 13.515625 -10.203125 13.253906 -11.445312 12.734375 -12.28125 C 12.222656 -13.125 11.429688 -13.546875 10.359375 -13.546875 Z M 10.359375 -13.546875 "/>
            </g>
        </g>
    </g>
    <g fill="#004015" fill-opacity="1">
        <g transform="translate(219.650833, 238.485452)">
            <g>
                <path d="M 9.359375 -17.265625 C 11.628906 -17.265625 13.367188 -16.769531 14.578125 -15.78125 C 15.785156 -14.789062 16.390625 -13.289062 16.390625 -11.28125 L 16.390625 0 L 13.171875 0 L 12.28125 -2.296875 L 12.15625 -2.296875 C 11.664062 -1.691406 11.171875 -1.195312 10.671875 -0.8125 C 10.171875 -0.4375 9.59375 -0.160156 8.9375 0.015625 C 8.28125 0.203125 7.484375 0.296875 6.546875 0.296875 C 5.546875 0.296875 4.648438 0.109375 3.859375 -0.265625 C 3.066406 -0.648438 2.441406 -1.238281 1.984375 -2.03125 C 1.523438 -2.820312 1.296875 -3.832031 1.296875 -5.0625 C 1.296875 -6.851562 1.925781 -8.175781 3.1875 -9.03125 C 4.457031 -9.882812 6.351562 -10.351562 8.875 -10.4375 L 11.8125 -10.53125 L 11.8125 -11.28125 C 11.8125 -12.164062 11.578125 -12.8125 11.109375 -13.21875 C 10.648438 -13.632812 10.003906 -13.84375 9.171875 -13.84375 C 8.359375 -13.84375 7.554688 -13.726562 6.765625 -13.5 C 5.972656 -13.269531 5.1875 -12.976562 4.40625 -12.625 L 2.875 -15.75 C 3.769531 -16.21875 4.773438 -16.585938 5.890625 -16.859375 C 7.003906 -17.128906 8.160156 -17.265625 9.359375 -17.265625 Z M 11.8125 -7.84375 L 10.015625 -7.78125 C 8.523438 -7.738281 7.488281 -7.46875 6.90625 -6.96875 C 6.332031 -6.476562 6.046875 -5.832031 6.046875 -5.03125 C 6.046875 -4.320312 6.25 -3.816406 6.65625 -3.515625 C 7.070312 -3.222656 7.613281 -3.078125 8.28125 -3.078125 C 9.269531 -3.078125 10.101562 -3.367188 10.78125 -3.953125 C 11.46875 -4.535156 11.8125 -5.367188 11.8125 -6.453125 Z M 11.8125 -7.84375 "/>
            </g>
        </g>
    </g>
    <g fill="#004015" fill-opacity="1">
        <g transform="translate(238.372599, 238.485452)">
            <g>
                <path d="M 12.03125 -17.234375 C 13.84375 -17.234375 15.296875 -16.742188 16.390625 -15.765625 C 17.492188 -14.785156 18.046875 -13.207031 18.046875 -11.03125 L 18.046875 0 L 13.421875 0 L 13.421875 -9.890625 C 13.421875 -11.097656 13.203125 -12.007812 12.765625 -12.625 C 12.328125 -13.238281 11.640625 -13.546875 10.703125 -13.546875 C 9.285156 -13.546875 8.316406 -13.066406 7.796875 -12.109375 C 7.285156 -11.148438 7.03125 -9.769531 7.03125 -7.96875 L 7.03125 0 L 2.421875 0 L 2.421875 -16.921875 L 5.953125 -16.921875 L 6.5625 -14.765625 L 6.828125 -14.765625 C 7.191406 -15.347656 7.640625 -15.816406 8.171875 -16.171875 C 8.710938 -16.535156 9.3125 -16.800781 9.96875 -16.96875 C 10.632812 -17.144531 11.320312 -17.234375 12.03125 -17.234375 Z M 12.03125 -17.234375 "/>
            </g>
        </g>
    </g>
    <g fill="#004015" fill-opacity="1">
        <g transform="translate(258.744055, 238.485452)">
            <g>
                <path d="M 9.40625 -17.234375 C 10.96875 -17.234375 12.3125 -16.929688 13.4375 -16.328125 C 14.570312 -15.734375 15.445312 -14.863281 16.0625 -13.71875 C 16.675781 -12.582031 16.984375 -11.191406 16.984375 -9.546875 L 16.984375 -7.3125 L 6.0625 -7.3125 C 6.113281 -6.007812 6.503906 -4.988281 7.234375 -4.25 C 7.972656 -3.507812 8.992188 -3.140625 10.296875 -3.140625 C 11.367188 -3.140625 12.351562 -3.25 13.25 -3.46875 C 14.15625 -3.6875 15.082031 -4.019531 16.03125 -4.46875 L 16.03125 -0.890625 C 15.195312 -0.472656 14.320312 -0.171875 13.40625 0.015625 C 12.488281 0.203125 11.378906 0.296875 10.078125 0.296875 C 8.378906 0.296875 6.878906 -0.015625 5.578125 -0.640625 C 4.273438 -1.265625 3.25 -2.21875 2.5 -3.5 C 1.757812 -4.78125 1.390625 -6.394531 1.390625 -8.34375 C 1.390625 -10.320312 1.722656 -11.96875 2.390625 -13.28125 C 3.066406 -14.601562 4.003906 -15.59375 5.203125 -16.25 C 6.410156 -16.90625 7.8125 -17.234375 9.40625 -17.234375 Z M 9.4375 -13.953125 C 8.53125 -13.953125 7.78125 -13.664062 7.1875 -13.09375 C 6.601562 -12.519531 6.265625 -11.617188 6.171875 -10.390625 L 12.65625 -10.390625 C 12.644531 -11.066406 12.519531 -11.671875 12.28125 -12.203125 C 12.039062 -12.742188 11.6875 -13.171875 11.21875 -13.484375 C 10.75 -13.796875 10.15625 -13.953125 9.4375 -13.953125 Z M 9.4375 -13.953125 "/>
            </g>
        </g>
    </g>
    <g fill="#004015" fill-opacity="1">
        <g transform="translate(277.057175, 238.485452)">
            <g>
                <path d="M 7.03125 0 L 2.421875 0 L 2.421875 -23.546875 L 7.03125 -23.546875 Z M 7.03125 0 "/>
            </g>
        </g>
    </g>
</svg>
